<svg xmlns="http://www.w3.org/2000/svg" viewBox="0 0 91.68 91.68" aria-labelledby="bTitle" role="img"><title id="bTitle">circle icon with the letter b</title><defs><style>.b-1{fill:#f2b5a7;}.b-2{fill:#591a5f;}</style></defs><g id="Layer_2" data-name="Layer 2"><g id="Layer_3" data-name="Layer 3"><circle class="b-1" cx="45.84" cy="45.84" r="45.84"/><path class="b-2" d="M50,43.09c8.1.08,25.21,2.06,25.21,14.21,0,9.55-9.32,15.28-26.2,15.28H20.49V72c7.64,0,7.64-4.2,7.64-13.14v-26c0-9.24,0-13.14-7.64-13.14V19.1H41.65c13.3,0,30,.08,30,12.38,0,10.08-14.06,11.23-21.7,11.46ZM43.87,19.71V42.78h2.37c7.33,0,9.7-3.66,9.7-11.76,0-7.26-2.22-11.31-10.09-11.31ZM57.77,57.3c0-8.63-1.22-13.9-11.53-13.9H43.87V63.11c0,7.25.23,8.86,5.12,8.86C55,72,57.77,67.31,57.77,57.3Z"/></g></g></svg>