<svg xmlns="http://www.w3.org/2000/svg" viewBox="0 0 91.68 91.68" aria-labelledby="cTitle" role="img"><title id="cTitle">circle icon with the letter c</title><defs><style>.c-1{fill:#f2b5a7;}.c-2{fill:#591a5f;}</style></defs><g id="Layer_2" data-name="Layer 2"><g id="Layer_3" data-name="Layer 3"><circle class="c-1" cx="45.84" cy="45.84" r="45.84"/><path class="c-2" d="M19.67,45.84c0-16,14.21-27.35,31.55-27.35A44.84,44.84,0,0,1,63,20.24l5.8-1.6L70,40H69.4c-.91-8.86-6-20.93-18.18-20.93-12.38,0-14.13,15.66-14.13,26.74s1.75,26.74,14.13,26.74c12.15,0,17.27-12.07,18.18-20.93H70L68.79,73,63,71.43a44.86,44.86,0,0,1-11.77,1.76C33.88,73.19,19.67,61.88,19.67,45.84Z"/></g></g></svg>