<svg xmlns="http://www.w3.org/2000/svg" viewBox="0 0 156.25 156.25"><defs><style>.cx-1,.cx-4{fill:#ca6b75;}.cx-2,.cx-3,.cx-5,.cx-6,.cx-7{fill:none;}.cx-2,.cx-3,.cx-4,.cx-5,.cx-6,.cx-7{stroke:#fff;}.cx-2,.cx-6,.cx-7{stroke-linejoin:round;}.cx-2,.cx-3,.cx-7{stroke-width:4px;}.cx-3,.cx-4,.cx-5{stroke-miterlimit:10;}.cx-4,.cx-5,.cx-6{stroke-width:3px;}.cx-6,.cx-7{stroke-linecap:round;}</style></defs><g id="Layer_2" data-name="Layer 2"><g id="Layer_4" data-name="Layer 4"><circle class="cx-1" cx="78.13" cy="78.13" r="78.13"/><path class="cx-2" d="M120.76,97.26V62.9c0-6.58-5-12-11.07-12H46.41c-6.09,0-11.07,5.38-11.07,12V97.26c0,6.58,5,12,11.07,12H81.72c5.79,7,12.07,11.25,32.51,16.74-5.37-6-7.84-10.37-9.32-16.74h4.78C115.78,109.22,120.76,103.84,120.76,97.26Z"/><path class="cx-3" d="M37.22,90.08H28.74c-1.63,0-3-1.75-3-3.89V75.74c0-2.13,1.34-3.88,3-3.88h8.48"/><path class="cx-3" d="M119,71.86h8.48c1.63,0,3,1.75,3,3.88V86.19c0,2.14-1.34,3.89-3,3.89H119"/><path class="cx-3" d="M77.6,50.94S76.36,31.05,91.93,31.53c6.94,0,15.8,3.36,15.8,3.36"/><circle class="cx-4" cx="106.32" cy="34.37" r="4.07"/><circle class="cx-5" cx="93.1" cy="73.3" r="5.81"/><path class="cx-6" d="M98,89.17c0,2.58-8.53,9.56-19,9.56s-19-7-19-9.56A77.9,77.9,0,0,0,77.92,91.6,72.91,72.91,0,0,0,98,89.17Z"/><line class="cx-7" x1="77.92" y1="83.95" x2="77.92" y2="81.29"/><circle class="cx-5" cx="62.06" cy="73.3" r="5.81"/></g></g></svg>