<svg xmlns="http://www.w3.org/2000/svg" viewBox="0 0 156.25 156.25"><defs><style>.dat-1{fill:#ca6b75;}.dat-2,.dat-3,.dat-5{fill:none;stroke:#fff;}.dat-2,.dat-3{stroke-miterlimit:10;}.dat-2,.dat-5{stroke-width:4px;}.dat-3{stroke-width:3px;}.dat-4{fill:#fff;}.dat-5{stroke-linejoin:round;}</style></defs><g id="Layer_2" data-name="Layer 2"><g id="Layer_4" data-name="Layer 4"><circle class="dat-1" cx="78.13" cy="78.13" r="78.13"/><ellipse class="dat-2" cx="122.85" cy="62.48" rx="20.52" ry="8.28"/><path class="dat-3" d="M143.37,78.12c0,4.58-9.19,8.28-20.52,8.28s-20.52-3.7-20.52-8.28"/><path class="dat-2" d="M102.33,62.48V93.77c0,4.57,9.19,8.27,20.52,8.27s20.52-3.7,20.52-8.27V62.48"/><line class="dat-2" x1="72.15" y1="70.76" x2="91.93" y2="70.76"/><polygon class="dat-4" points="84.2 77.54 90.99 70.76 84.2 63.98 89.96 63.98 96.74 70.76 89.96 77.54 84.2 77.54"/><line class="dat-2" x1="91.93" y1="86.4" x2="72.15" y2="86.4"/><polygon class="dat-4" points="79.88 79.62 73.1 86.4 79.88 93.18 74.12 93.18 67.34 86.4 74.12 79.62 79.88 79.62"/><circle class="dat-2" cx="37.46" cy="56.31" r="5.57"/><path class="dat-5" d="M34.32,105.51V85.44a7.67,7.67,0,0,0-7.64-7.64H20.52a7.67,7.67,0,0,0-7.64,7.64v20.07Z"/><circle class="dat-2" cx="23.6" cy="68.3" r="7.06"/><path class="dat-5" d="M62,105.51V85.44a7.66,7.66,0,0,0-7.63-7.64H48.24a7.66,7.66,0,0,0-7.63,7.64v20.07Z"/><circle class="dat-2" cx="51.32" cy="68.3" r="7.06"/></g></g></svg>