<svg xmlns="http://www.w3.org/2000/svg" viewBox="0 0 181 181" aria-labelledby="emailTitle" role="img"><title id="emailTitle">an open envelope illustration</title><defs><style>.cls-1,.cls-5,.cls-6{fill:#feffdf;}.cls-1{stroke:#f2b5a7;}.cls-1,.cls-6{stroke-miterlimit:10;}.cls-1,.cls-3,.cls-4,.cls-7{stroke-width:3px;}.cls-2,.cls-3,.cls-7{fill:none;}.cls-2,.cls-3,.cls-4,.cls-5,.cls-6{stroke:#591a5f;}.cls-2,.cls-3,.cls-4,.cls-5,.cls-7{stroke-linejoin:round;}.cls-2{stroke-width:5px;}.cls-4{fill:#fff;}.cls-5,.cls-6{stroke-width:4px;}.cls-7{stroke:#ca6b75;stroke-linecap:round;}</style></defs><g id="Layer_2" data-name="Layer 2"><g id="Layer_4" data-name="Layer 4"><circle class="cls-1" cx="90.5" cy="90.5" r="89"/><rect class="cls-2" x="33.35" y="72.18" width="114.47" height="75.82"/><polyline class="cls-3" points="33.35 148 90.58 110.09 147.82 148"/><path class="cls-4" d="M147.82,72.18,104,108.74a24.81,24.81,0,0,1-13.4,4.34c-7.55,0-14.59-5.3-14.59-5.3L33.35,72.18Z"/><path class="cls-5" d="M33.35,72.18,77.18,35.62s5.85-5.34,13.4-5.34,14.6,6.3,14.6,6.3l42.64,35.6Z"/><path class="cls-6" d="M76.94,105,53.63,86.14,41.32,75.87V43.41h98.52V75.86L104.1,105.67s-4.78,3.83-13.6,3.83C80.2,109.5,76.94,105,76.94,105Z"/><line class="cls-7" x1="59.66" y1="59.33" x2="123.5" y2="59.33"/><line class="cls-7" x1="59.66" y1="72.4" x2="123.5" y2="72.4"/><line class="cls-7" x1="59.66" y1="85.46" x2="104.9" y2="85.46"/></g></g></svg>