<svg xmlns="http://www.w3.org/2000/svg" viewBox="0 0 156.25 156.25"><defs><style>.em-1{fill:#ca6b75;}.em-2{fill:#fff;}.em-3{fill:none;stroke:#fff;stroke-linecap:round;stroke-linejoin:round;stroke-width:3px;}</style></defs><g id="Layer_2" data-name="Layer 2"><g id="Layer_4" data-name="Layer 4"><circle class="em-1" cx="78.13" cy="78.13" r="78.13"/><path class="em-2" d="M122.71,82.32H44.56a2.5,2.5,0,0,1-2.5-2.5V28.05a2.5,2.5,0,0,1,2.5-2.5h78.15a2.5,2.5,0,0,1,2.5,2.5V79.82A2.5,2.5,0,0,1,122.71,82.32Zm-75.65-5h73.15V30.55H47.06Z"/><path class="em-2" d="M121.88,81.07,83.63,55.73,45.39,81.07l-1.66-2.5L82.81,52.68a1.5,1.5,0,0,1,1.65,0l39.08,25.89Z"/><path class="em-1" d="M44.56,28.05,74.49,53s4,3.64,9.14,3.64,10-4.3,10-4.3l29.11-24.31Z"/><path class="em-2" d="M83.63,58.16a16.57,16.57,0,0,1-10.16-4L43.6,29.21a1.5,1.5,0,0,1,1-2.66h78.15a1.51,1.51,0,0,1,1.41,1,1.53,1.53,0,0,1-.45,1.67L94.56,53.51C94.39,53.67,89.3,58.16,83.63,58.16ZM48.7,29.55,75.45,51.86c.08.08,3.7,3.3,8.18,3.3s8.93-3.88,9-3.92l26-21.69Z"/><line class="em-3" x1="107.47" y1="28.2" x2="59.79" y2="28.2"/><path class="em-1" d="M55.53,90.93c-11.71,0-21.21,7.07-21.21,15.8,0,5,3.15,9.49,8,12.39a20.9,20.9,0,0,1-8.82,9.08c6.28,0,12.71-2.3,16.58-6.19a28,28,0,0,0,5.41.52c11.71,0,21.2-7.07,21.2-15.8S67.24,90.93,55.53,90.93Z"/><path class="em-2" d="M33.54,130.2a2,2,0,0,1-.9-3.79,18.07,18.07,0,0,0,7-6.65c-4.71-3.35-7.37-8-7.37-13,0-9.82,10.41-17.8,23.21-17.8s23.2,8,23.2,17.8-10.41,17.8-23.2,17.8a30.28,30.28,0,0,1-4.77-.37C46.55,127.9,40.07,130.2,33.54,130.2Zm22-37.27c-10.59,0-19.21,6.19-19.21,13.8,0,4.13,2.57,8,7.06,10.66a2,2,0,0,1,.75,2.65,25.42,25.42,0,0,1-3.51,5.13,19.08,19.08,0,0,0,8.08-4.57,2,2,0,0,1,1.8-.55,26.31,26.31,0,0,0,5,.48c10.59,0,19.2-6.19,19.2-13.8S66.12,92.93,55.53,92.93Z"/><path class="em-1" d="M84.31,78.38c13.36,0,24.18,8.07,24.18,18,0,5.73-3.58,10.82-9.17,14.13a23.83,23.83,0,0,0,10.06,10.35c-7.16,0-14.49-2.62-18.9-7a31.81,31.81,0,0,1-6.17.59c-13.35,0-24.18-8.06-24.18-18S71,78.38,84.31,78.38Z"/><path class="em-2" d="M109.38,122.88c-7.43,0-14.8-2.62-19.54-6.9a33.91,33.91,0,0,1-5.53.44c-14.44,0-26.18-9-26.18-20s11.74-20,26.18-20,26.18,9,26.18,20c0,5.7-3.07,11-8.49,14.78a20.86,20.86,0,0,0,8.28,7.91,2,2,0,0,1-.9,3.79Zm-18.9-11a2,2,0,0,1,1.42.59A22.5,22.5,0,0,0,102.18,118a28.55,28.55,0,0,1-4.63-6.51,2,2,0,0,1,.76-2.65c5.2-3.07,8.18-7.59,8.18-12.4,0-8.83-9.95-16-22.18-16s-22.18,7.19-22.18,16,9.95,16,22.18,16a30,30,0,0,0,5.78-.55A1.72,1.72,0,0,1,90.48,111.83Z"/></g></g></svg>