<svg xmlns="http://www.w3.org/2000/svg" viewBox="0 0 408.53 118.6" aria-labelledby="heroMobileTitle" role="img"><title id="heroMobileTitle">Un-Fuck Your Growth</title><defs><style>.hm-1{fill:#591a5f;}</style></defs><g id="Layer_2" data-name="Layer 2"><g id="Layer_3" data-name="Layer 3"><path class="hm-1" d="M71.43,31.44V16.2c0-7.26,0-10.32-6-10.32V5.4H89.61v.48c-5.22,0-5.82,2.64-5.82,10.32V31.44c0,6.6.54,15.36,9.24,15.36,7,0,12.54-3.12,12.54-13.68V23.76c0-8.76-.24-17.88-9.24-17.88V5.4h19.08v.48c-8.82,0-9.24,9.12-9.24,17.88v9.36c0,10.26-4.92,14.7-15.66,14.7C78.63,47.82,71.43,45.12,71.43,31.44Z"/><path class="hm-1" d="M148.35,40c0,5.76.54,7,4.8,7v.48H133.83v-.48c3.3,0,3.36-1.62,3.36-7V25.5c0-1.62,0-5.34-3.6-5.34a8.64,8.64,0,0,0-5.46,2.35V40c0,4.32.06,7,3.42,7v.48H112.17v-.48c4.26,0,4.8-1.2,4.8-7V25c0-4-.24-6.12-5.4-5l-.12-.48,16.8-4L128,21.92c6-4.86,9.62-6.56,13.3-6.56,4.86,0,7,2.82,7,8.94Z"/><path class="hm-1" d="M155.13,28.2v-.6h19.5v.6Z"/><path class="hm-1" d="M176,47.4v-.48c6,0,6-3.3,6-10.32V16.2c0-7.26,0-10.32-6-10.32V5.4h37.68l1.5,14.46h-.48c-1-9.06-7-14-15.54-14h-4.8v19.8c7.86,0,11.64-2.94,12-9.36h.48l-1,19.38h-.48c.3-5.82-3.12-9.54-11-9.54V36.6c0,7,.6,10.32,6.84,10.32v.48Z"/><path class="hm-1" d="M258,15.36c4.07,0,7.86,2.7,7.86,7.62a6.65,6.65,0,0,1-6.66,7,5,5,0,0,1-5.34-5,4.16,4.16,0,0,0,3-4c0-1.92-.84-3.24-2.64-3.24-3.31,0-5.48,4.75-5.71,10.18,4.07,5.09,7.75,10.74,7.75,18,0,7.38-5.46,15.54-14.46,15.54-5.1,0-9.12-2.58-9.12-7.26a6.17,6.17,0,0,1,6.48-6.24c3,0,5.52,1.56,5.7,5.34a3.73,3.73,0,0,0-2.7,3.54,3.13,3.13,0,0,0,3.06,3.3c2.22,0,3.84-1.62,3.84-5.64,0-4.31-2.24-8.67-5.23-13.05a15.78,15.78,0,0,1-13.43,6.51c-8.34,0-12.78-5.1-12.78-11.52,0-6.12,3.94-11.24,13.46-13a17.79,17.79,0,0,1-2.3-8.09C228.75,8.7,234.33,5,241.17,5c6.54,0,8.52,3.18,8.52,5.82,0,3.39-3.18,6.32-8.21,8.35,1.85,2.63,4.18,5.25,6.43,8,.43-6.62,3.12-11.82,10.06-11.82ZM237.81,42.42a10.57,10.57,0,0,0,5.67-1.5c-4-5.71-9.11-11.44-12.16-17.07-2.23,1.06-3.17,4.5-3.17,7.35,0,6.18,3.36,11.22,9.66,11.22Zm3.36-37c-1.92,0-3.36,1.26-3.36,4.2,0,3.17,1.35,6.09,3.31,9,2.24-1.93,3.29-5.51,3.29-8.38,0-1.8-.42-4.8-3.24-4.8Z"/><path class="hm-1" d="M269.43,32.16c0-9.84,7-16.8,17.46-16.8,4,0,13.74,1.32,13.74,8.52a5.34,5.34,0,0,1-5.7,5.52,5,5,0,0,1-5.28-5,4.31,4.31,0,0,0,2.1-3.72c0-2.94-1.68-4.8-4.44-4.8-5.52,0-6.54,7.26-6.54,11.58,0,8.46,4.62,13,10.56,13,3,0,7.44-1.14,9.6-4.44l.36.18c-2.64,6.42-8.1,11.7-16.44,11.7S269.43,41.94,269.43,32.16Z"/><path class="hm-1" d="M337.17,39.18c1.92,6.12,3.24,7.86,5.94,7.5v.48a32.59,32.59,0,0,1-8,.84c-7.26,0-8.7-3.12-10.26-8.46-1.38-4.8-1.68-9.84-5.16-9.84a4.8,4.8,0,0,0-2.1.55V40c0,4.32.06,7,4,7v.48h-20v-.48c4.26,0,4.8-1.2,4.8-7V9.48c0-4-.24-6.12-5.4-5L300.93,4l16.8-4-.24,29.42,5.4-5.24c1.92-1.92,3.9-3.78,3.9-5.7,0-1.32-.84-2.16-3.06-2.16v-.48h15.06v.48c-5.94,0-10.8,3.72-15.12,7.86l-5.6,5.38c3.68-1.81,6.05-2.2,7.88-2.2,7.08,0,9.6,6.72,11.22,11.82Z"/><path class="hm-1" d="M33.6,75.4H50.52v.48c-6.06,0-11.64,7.68-16.2,16.32L31,98.51v8.09c0,7,0,10.32,6,10.32v.48H12.66v-.48c6,0,6-3.36,6-10.32v-6.24L8.16,83c-3-5-4.56-7.08-8.16-7.08V75.4H24.66v.48c-6.66,0-5,3.42-2.82,7.08L30.67,98l3-5.83c4.5-8.64,8.46-16.32-.12-16.32Z"/><path class="hm-1" d="M41.76,101.62c0-9.6,7.68-16.26,17.52-16.26S76.8,92,76.8,101.62s-7.68,16.26-17.52,16.26S41.76,111.22,41.76,101.62Zm22.8,0c0-8.4-.6-15.78-5.28-15.78S54,93.22,54,101.62c0,9,.6,15.78,5.28,15.78S64.56,110.62,64.56,101.62Z"/><path class="hm-1" d="M120.3,113.26c-2.76,2.34-6.12,4.5-10.44,4.5s-6.3-2.14-6.25-7c-5.14,5.42-9.64,7.12-13.31,7.12-4.86,0-7-2.82-7-8.94V93.52c0-3.54-.18-5.46-5.4-4.5l-.12-.48,16.68-3.06v22.26c0,1.62,0,5.34,3.6,5.34a7.4,7.4,0,0,0,5.46-2.92V93.52c0-3.54-.18-5.46-4.2-4.74l-.12-.48,15.48-2.82v23.7c0,2,0,4.74,2.76,4.74a4.46,4.46,0,0,0,2.64-1Z"/><path class="hm-1" d="M146.16,85.36c4.08,0,7.86,2.58,7.86,7.5a6.64,6.64,0,0,1-6.66,7,5,5,0,0,1-5.34-5,4.16,4.16,0,0,0,3-4c0-1.92-.84-3.24-2.64-3.24-2.9,0-5.07,3.92-6.24,8V110c0,5.76.54,7,5.4,7v.48H120.18v-.48c4.26,0,4.8-1.2,4.8-7V95c0-4-.24-6.12-5.4-5l-.12-.48,16.8-4L136,94.32c1.46-4.66,4.4-9,10.13-9Z"/><path class="hm-1" d="M169.2,96.4c0-12.6,11.16-21.48,24.78-21.48a35.41,35.41,0,0,1,9.24,1.38L207.78,75l1,16.8h-.48c-.72-7-4.74-16.44-14.28-16.44-9.72,0-11.1,12.3-11.1,21s1.38,21,10.86,21a16,16,0,0,0,4.26-.54v-8.64c0-7.26,0-10.14-5.88-10.14V97.6h22.26v.48c-4.08,0-4.62,2.22-4.62,7.62v12.06l-5.88-1.26a51.11,51.11,0,0,1-10.14,1.38C180.36,117.88,169.2,109,169.2,96.4Z"/><path class="hm-1" d="M239.64,85.36c4.08,0,7.85,2.58,7.85,7.5a6.64,6.64,0,0,1-6.66,7,5.05,5.05,0,0,1-5.34-5,4.15,4.15,0,0,0,3-4c0-1.92-.84-3.24-2.64-3.24-2.89,0-5.06,3.92-6.23,8V110c0,5.76.53,7,5.4,7v.48H213.66v-.48c4.26,0,4.8-1.2,4.8-7V95c0-4-.24-6.12-5.4-5l-.12-.48,16.79-4-.23,8.84c1.47-4.66,4.4-9,10.14-9Z"/><path class="hm-1" d="M249.3,101.62c0-9.6,7.68-16.26,17.52-16.26s17.52,6.66,17.52,16.26-7.68,16.26-17.52,16.26S249.3,111.22,249.3,101.62Zm22.8,0c0-8.4-.6-15.78-5.28-15.78s-5.28,7.38-5.28,15.78c0,9,.6,15.78,5.28,15.78S272.1,110.62,272.1,101.62Z"/><path class="hm-1" d="M330.9,85.84H344v.48c-4.2,0-6.07,3.18-9.42,10l-11,22.32L312.72,96.52,301.86,118.6,289,93c-2.34-4.62-3.9-6.66-7.32-6.66v-.48h21.36v.48c-4.38,0-2.94,3.84-1.14,7.56l5.69,11.68,4.79-9.7L311,93c-2.28-4.62-3-6.66-5.94-6.66v-.48h20.58v.48c-4.14,0-3.48,3.84-1.74,7.56l5.46,11.67,4.56-9.27c2.64-5.34,3.41-10-3-10Z"/><path class="hm-1" d="M348.9,110V86.32h-4.2v-.48h.9c4.92,0,8.76-.9,11-2.76,1.57-2,2.71-6.24,2.95-9.18H360V85.84h6.6v.48H360v21.6c0,2.34.07,5.94,3.07,5.94a6.62,6.62,0,0,0,4.37-2.16l.24.36c-3.11,3.42-7.13,5.82-11.69,5.82C351.23,117.88,348.9,114.64,348.9,110Z"/><path class="hm-1" d="M403.73,110c0,5.76.54,7,4.8,7v.48H389.22v-.48c3.3,0,3.35-1.62,3.35-7V95.5c0-1.62,0-5.34-3.59-5.34a8.62,8.62,0,0,0-5.46,2.35V110c0,4.32.06,7,3.42,7v.48H367.56v-.48c4.26,0,4.8-1.2,4.8-7V79.48c0-4-.24-6.12-5.4-5l-.12-.48,16.8-4-.24,21.93c6-4.87,9.63-6.57,13.32-6.57,4.85,0,7,2.82,7,8.94Z"/></g></g></svg>