<?xml version="1.0" encoding="utf-8"?>
<svg version="1.1" id="Layer_1" xmlns="http://www.w3.org/2000/svg" xmlns:xlink="http://www.w3.org/1999/xlink" x="0px" y="0px"
	 viewBox="0 0 633 145" style="enable-background:new 0 0 633 145;"  aria-labelledby="heroTitle" role="img"><title id="heroTitle">Growth Strategy for Rocketship Brands</title>
<style type="text/css">
	.st0{fill:#592160;}
</style>
<g>
	<path class="st0" d="M3.6,32.5C3.6,19.9,14.7,11,28.4,11c3.5,0,7.3,0.8,9.2,1.4l4.6-1.3l1,16.8h-0.5c-0.7-7-4.7-16.4-14.3-16.4
		c-9.7,0-11.1,12.3-11.1,21s1.4,21,10.9,21c1.8,0,3.1-0.2,4.3-0.5v-8.6c0-7.3,0-10.1-5.9-10.1v-0.5h22.3v0.5c-4.1,0-4.6,2.2-4.6,7.6
		v12.1l-5.9-1.3c-2.5,0.6-7,1.4-10.1,1.4C14.7,53.9,3.6,45.1,3.6,32.5z"/>
	<path class="st0" d="M74,21.4c4.1,0,7.9,2.6,7.9,7.5c0,3.9-2.8,7-6.7,7c-2.7,0-5.2-1.6-5.3-5c1.8-0.6,3-2.1,3-4
		c0-1.9-0.8-3.2-2.6-3.2c-2.9,0-5.1,3.9-6.2,8V46c0,5.8,0.5,7,5.4,7v0.5H48V53c4.3,0,4.8-1.2,4.8-7V31c0-4-0.2-6.1-5.4-5l-0.1-0.5
		l16.8-4l-0.2,8.8C65.3,25.7,68.3,21.4,74,21.4L74,21.4z"/>
	<path class="st0" d="M83.7,37.7c0-9.6,7.7-16.3,17.5-16.3c9.8,0,17.5,6.7,17.5,16.3s-7.7,16.3-17.5,16.3
		C91.4,53.9,83.7,47.3,83.7,37.7z M106.5,37.7c0-8.4-0.6-15.8-5.3-15.8c-4.7,0-5.3,7.4-5.3,15.8c0,9,0.6,15.8,5.3,15.8
		C105.9,53.4,106.5,46.7,106.5,37.7z"/>
	<path class="st0" d="M165.3,21.9h13.1v0.5c-4.2,0-6.1,3.2-9.4,10l-11,22.3l-10.9-22.1l-10.9,22.1L123.4,29
		c-2.3-4.6-3.9-6.7-7.3-6.7v-0.5h21.4v0.5c-4.4,0-2.9,3.8-1.1,7.6l5.7,11.7l4.8-9.7l-1.4-2.9c-2.3-4.6-3-6.7-5.9-6.7v-0.5H160v0.5
		c-4.1,0-3.5,3.8-1.7,7.6l5.5,11.7l4.6-9.3c2.6-5.3,3.4-10-3-10L165.3,21.9z"/>
	<path class="st0" d="M183.3,46V22.4h-4.2v-0.5h0.9c4.9,0,8.8-0.9,11-2.8c1.6-2,2.7-6.2,2.9-9.2h0.5v11.9h6.6v0.5h-6.6V44
		c0,2.3,0.1,5.9,3.1,5.9c1.6,0,3-0.9,4.4-2.2l0.2,0.4c-3.1,3.4-7.1,5.8-11.7,5.8C185.6,53.9,183.3,50.7,183.3,46z"/>
	<path class="st0" d="M238.1,46c0,5.8,0.5,7,4.8,7v0.5h-19.3V53c3.3,0,3.4-1.6,3.4-7V31.6c0-1.6,0-5.3-3.6-5.3
		c-1.7,0-3.7,0.8-5.5,2.4V46c0,4.3,0.1,7,3.4,7v0.5h-19.4V53c4.3,0,4.8-1.2,4.8-7V15.5c0-4-0.2-6.1-5.4-5l-0.1-0.5l16.8-4L217.8,28
		c6-4.9,9.6-6.6,13.3-6.6c4.9,0,7,2.8,7,8.9V46z"/>
	<path class="st0" d="M262.4,52.5l-4.4,1.3l-1-17.4h0.5c1,7,4.9,17,15.7,17c5.5,0,9.8-1.9,9.8-6.4c0-10.1-26.2-9.2-26.2-23.7
		c0-8.1,7.7-12.4,17.3-12.4c3.1,0,7.3,0.8,9.5,1.4l4.6-1.3l0.8,14.8h-0.5c-1-6.8-4.7-14.4-14.4-14.4c-4.8,0-8.1,2.3-8.1,6.2
		c0,9.2,26.2,7.7,26.2,22.7c0,8.5-8.9,13.6-19,13.6C268.9,53.9,264.7,53.1,262.4,52.5z"/>
	<path class="st0" d="M296.7,46V22.4h-4.2v-0.5h0.9c4.9,0,8.8-0.9,11-2.8c1.6-2,2.7-6.2,2.9-9.2h0.5v11.9h6.6v0.5h-6.6V44
		c0,2.3,0.1,5.9,3.1,5.9c1.6,0,3-0.9,4.4-2.2l0.2,0.4c-3.1,3.4-7.1,5.8-11.7,5.8C299.1,53.9,296.7,50.7,296.7,46z"/>
	<path class="st0" d="M341.4,21.4c4.1,0,7.9,2.6,7.9,7.5c0,3.9-2.8,7-6.7,7c-2.7,0-5.2-1.6-5.3-5c1.8-0.6,3-2.1,3-4
		c0-1.9-0.8-3.2-2.6-3.2c-2.9,0-5.1,3.9-6.2,8V46c0,5.8,0.5,7,5.4,7v0.5h-21.4V53c4.3,0,4.8-1.2,4.8-7V31c0-4-0.2-6.1-5.4-5
		l-0.1-0.5l16.8-4l-0.2,8.8C332.7,25.7,335.6,21.4,341.4,21.4L341.4,21.4z"/>
	<path class="st0" d="M387.5,49.3c-2.8,2.3-6.1,4.5-10.4,4.5c-3.5,0-5.8-1.5-6.2-6.8c-1.6,4.4-6.4,6.9-11.2,6.9
		c-5.6,0-9.2-2.8-9.2-7.9c0-9.5,13.5-7.9,20.3-12.5v-3.6c0-3.8-0.7-8-4.8-8c-3.1,0-4.6,1.9-4.6,4.8c0,1.4,0.8,3.2,2.1,3.7
		c-0.2,3.4-2.6,5-5.3,5c-3.2,0-5.7-1.9-5.7-5.3c0-7.2,9.6-8.7,13.5-8.7c8.4,0,16,2.3,16,9.3v14.5c0,2,0,4.7,2.8,4.7
		c0.8,0,1.5-0.2,2.6-1L387.5,49.3z M370.7,45.1v-11c-4.3,2.7-8,2.9-8,9.5c0,2.9,1,5.9,4.1,5.9C369.3,49.5,370.7,47.3,370.7,45.1z"/>
	<path class="st0" d="M390.9,46V22.4h-4.2v-0.5h0.9c4.9,0,8.8-0.9,11-2.8c1.6-2,2.7-6.2,2.9-9.2h0.5v11.9h6.6v0.5H402V44
		c0,2.3,0.1,5.9,3.1,5.9c1.6,0,3-0.9,4.4-2.2l0.2,0.4c-3.1,3.4-7.1,5.8-11.7,5.8C393.2,53.9,390.9,50.7,390.9,46z"/>
	<path class="st0" d="M442.7,42.2c-2.6,6.4-8.1,11.7-16.4,11.7s-15.4-5.9-15.4-15.7c0-9.8,7-16.8,17.5-16.8
		c10.3,0,15.7,5.2,13.8,12.8h-20c0.3,8.5,4.8,12.2,10.5,12.2c3,0,7.4-1.1,9.6-4.4L442.7,42.2z M428.4,21.9c-5.2,0-6.2,7.3-6.2,11.6
		c0,0.1,0,0.1,0,0.2h9.3C432.5,29.9,433,21.9,428.4,21.9L428.4,21.9z"/>
	<path class="st0" d="M467.2,44.2c6.5,0,14.5,1.9,14.5,10.1c0,7.7-7,13.6-21.2,13.6c-7.3,0-15-1-15-7c0-2.9,2.2-4.8,4.9-4.8
		c2.3,0,4.3,1.4,4.4,4.2c-1.3,0.5-1.9,1.9-1.9,3.1c0,2.5,1.9,4,7.6,4c10.1,0,14.2-2.7,14.2-6.7c0-3.2-2.5-5-7.7-5
		c-2,0-5.4,0.2-8.5,0.2c-6.2,0-13.5-1-13.5-7.4c0-4.3,3.6-7.8,9.6-9.3c-4-1.5-6.9-4.3-6.9-8.4c0-6.7,7.9-9.8,15.7-9.8
		c1.7,0,3.5,0.2,5.2,0.5c-0.1-0.8-0.2-1.6-0.2-2.3c0-4.7,2.8-8.3,7.3-8.3c3.9,0,6.1,2.5,6.1,5.5c0,2.8-2.4,5.5-5.3,5.7
		c-0.3-2.7-2-4.1-4.1-4.1c-1.8,0-3.4,1.2-3.4,3.8c5.5,1.2,10,4.2,10,9.3c0,6.7-7.9,9.8-15.7,9.8c-2.8,0-5.6-0.4-8-1.2
		c-2.5,0.6-3.2,1.7-3.2,2.6c0,2,3.5,2.2,7,2.2C460.1,44.5,464.6,44.2,467.2,44.2L467.2,44.2z M458.8,31.2c0.2,5.1,1.3,9.2,4.7,9.2
		c3.8,0,4.6-5,4.4-9.5c-0.2-5.1-1.3-9.2-4.7-9.2C459.3,21.7,458.6,26.7,458.8,31.2z"/>
	<path class="st0" d="M509.9,21.9H523v0.5c-4.2,0-6.7,3.2-10,10l-11,22.3c-2.6,5.2-5.9,12.8-13.2,12.8c-5.2,0-7-3.7-7-6.6
		c0-3.3,2.8-6.2,6.2-6.2c3,0,5.2,1.7,5.3,5.5c-1.4,0.5-3.2,1.7-3.2,3.5c0,1.6,1,2.2,2,2.2c2.4,0,5.9-3.6,9.6-11.8L489.2,29
		c-2.3-4.6-3.9-6.7-7.3-6.7v-0.5h22.6v0.5c-4.7,0-4.1,3.8-2.3,7.6l5.7,11.7l4.6-9.3c2.1-4.3,5.5-10-2.4-10V21.9z"/>
	<path class="st0" d="M535.9,53.4V53c4.3,0,4.8-1.2,4.8-7V22.4h-4.8v-0.5h4.9c-0.2-1.4-0.5-3.1-0.5-5.2c0-5.9,2.9-10.7,10.7-10.7
		c4.9,0,9.7,2.4,9.7,7.4c0,4-2.7,6.2-6,6.2c-3,0-5.3-1.7-5.6-5.5c1.4-0.7,2.7-1.9,2.7-4c0-1.9-1.2-3.3-3.1-3.3
		c-3.1,0-4.6,2.7-4.6,5.7c0,4.6,3,9.3,9,9.3h4.2v0.5h-5.4V46c0,5.8,0.5,7,5.4,7v0.5H535.9z"/>
	<path class="st0" d="M558.3,37.7c0-9.6,7.7-16.3,17.5-16.3s17.5,6.7,17.5,16.3s-7.7,16.3-17.5,16.3S558.3,47.3,558.3,37.7z
		 M581.1,37.7c0-8.4-0.6-15.8-5.3-15.8s-5.3,7.4-5.3,15.8c0,9,0.6,15.8,5.3,15.8S581.1,46.7,581.1,37.7z"/>
	<path class="st0" d="M621.6,21.4c4.1,0,7.9,2.6,7.9,7.5c0,3.9-2.8,7-6.7,7c-2.7,0-5.2-1.6-5.3-5c1.8-0.6,3-2.1,3-4
		c0-1.9-0.8-3.2-2.6-3.2c-2.9,0-5.1,3.9-6.2,8V46c0,5.8,0.5,7,5.4,7v0.5h-21.4V53c4.3,0,4.8-1.2,4.8-7V31c0-4-0.2-6.1-5.4-5
		l-0.1-0.5l16.8-4l-0.2,8.8C612.9,25.7,615.8,21.4,621.6,21.4L621.6,21.4z"/>
	<path class="st0" d="M71,124.2v0.5c-2.6,0.7-6.5,1.4-9.5,1.4c-7.4,0-10.3-2.8-12.5-9.5c-1.3-4-1.7-12.1-7.3-12.1h-1.7v10.3
		c0,7,0.6,10.3,6.2,10.3v0.5H21.6V125c6,0,6-3.3,6-10.3V94.3c0-7.3,0-10.3-6-10.3v-0.5h21.7c6.2,0,20.2,0.2,20.2,10.3
		c0,8.2-11.3,10.1-18.4,10.4v0.1c11.8,0,14.7,3.8,17.5,9.8C66.5,122.6,68.1,124.5,71,124.2z M39.9,103.9h1.7c6,0,8.6-3.1,8.6-10.1
		c0-5.6-2-9.8-8.5-9.8h-1.8V103.9z"/>
	<path class="st0" d="M68.6,109.7c0-9.6,7.7-16.3,17.5-16.3c9.8,0,17.5,6.7,17.5,16.3s-7.7,16.3-17.5,16.3
		C76.2,125.9,68.6,119.3,68.6,109.7z M91.4,109.7c0-8.4-0.6-15.8-5.3-15.8s-5.3,7.4-5.3,15.8c0,9,0.6,15.8,5.3,15.8
		S91.4,118.7,91.4,109.7z"/>
	<path class="st0" d="M107.2,110.2c0-9.8,7-16.8,17.5-16.8c4,0,13.7,1.3,13.7,8.5c0,3.4-2.5,5.5-5.7,5.5c-2.7,0-5.1-1.6-5.3-5
		c1.3-0.5,2.1-2.3,2.1-3.7c0-2.9-1.7-4.8-4.4-4.8c-5.5,0-6.5,7.3-6.5,11.6c0,8.5,4.6,13,10.6,13c3,0,7.4-1.1,9.6-4.4l0.4,0.2
		c-2.6,6.4-8.1,11.7-16.4,11.7C114.3,125.9,107.2,120,107.2,110.2z"/>
	<path class="st0" d="M174.9,117.2c1.9,6.1,3.2,7.9,5.9,7.5v0.5c-2.5,0.6-4.9,0.8-8,0.8c-7.3,0-8.7-3.1-10.3-8.5
		c-1.4-4.8-1.7-9.8-5.2-9.8c-0.6,0-1.3,0.2-2.1,0.5v9.7c0,4.3,0.1,7,4,7v0.5h-20V125c4.3,0,4.8-1.2,4.8-7V87.5c0-4-0.2-6.1-5.4-5
		l-0.1-0.5l16.8-4l-0.2,29.4l5.4-5.2c1.9-1.9,3.9-3.8,3.9-5.7c0-1.3-0.8-2.2-3.1-2.2v-0.5h15.1v0.5c-5.9,0-10.8,3.7-15.1,7.9
		l-5.6,5.4c3.7-1.8,6-2.2,7.9-2.2C170.8,105.4,173.3,112.1,174.9,117.2L174.9,117.2z"/>
	<path class="st0" d="M211.4,114.2c-2.6,6.4-8.1,11.7-16.4,11.7c-8.3,0-15.4-5.9-15.4-15.7c0-9.8,7-16.8,17.5-16.8
		c10.3,0,15.7,5.2,13.8,12.8h-20c0.3,8.5,4.8,12.2,10.5,12.2c3,0,7.4-1.1,9.6-4.4L211.4,114.2z M197.1,93.9c-5.2,0-6.2,7.3-6.2,11.6
		c0,0.1,0,0.1,0,0.2h9.3C201.2,101.9,201.7,93.9,197.1,93.9L197.1,93.9z"/>
	<path class="st0" d="M217.3,118V94.4h-4.2v-0.5h0.9c4.9,0,8.8-0.9,11-2.8c1.6-2,2.7-6.2,2.9-9.2h0.5v11.9h6.6v0.5h-6.6V116
		c0,2.3,0.1,5.9,3.1,5.9c1.6,0,3-0.9,4.4-2.2l0.2,0.4c-3.1,3.4-7.1,5.8-11.7,5.8C219.6,125.9,217.3,122.7,217.3,118z"/>
	<path class="st0" d="M241.6,124.7l-4.3,1.1l-0.7-12.8h0.4c1.4,10.1,9.3,12.5,13.6,12.5c3.8,0,7.7-1.1,7.7-4.3
		c0-6.5-21.8-5.8-21.8-17.6c0-7.4,8-10.1,15.4-10.1c2.4,0,5.3,0.5,7.5,1.1l3.7-1l0.6,10.6h-0.4c-1.4-7.5-6.7-10.3-11.3-10.3
		c-4.3,0-6.6,2-6.6,4.3c0,6.8,21.4,5,21.4,16.9c0,7.7-7.6,10.9-16.1,10.9C248.4,125.9,245.3,125.5,241.6,124.7z"/>
	<path class="st0" d="M303.5,118c0,5.8,0.5,7,4.8,7v0.5h-19.3V125c3.3,0,3.4-1.6,3.4-7v-14.5c0-1.6,0-5.3-3.6-5.3
		c-1.7,0-3.7,0.8-5.5,2.4V118c0,4.3,0.1,7,3.4,7v0.5h-19.4V125c4.3,0,4.8-1.2,4.8-7V87.5c0-4-0.2-6.1-5.4-5l-0.1-0.5l16.8-4
		l-0.2,21.9c6-4.9,9.6-6.6,13.3-6.6c4.9,0,7,2.8,7,8.9V118z"/>
	<path class="st0" d="M309.2,125.4V125c4.3,0,4.8-1.2,4.8-7v-15c0-4-0.2-6.1-5.4-5l-0.1-0.5l16.8-4l-0.1,6.9V118c0,5.8,0.5,7,4.8,7
		v0.5H309.2z M313,84.6c0-3.6,3-6.5,6.6-6.5c3.7,0,6.6,2.9,6.6,6.5c0,3.7-2.9,6.7-6.6,6.7C316,91.3,313,88.3,313,84.6z"/>
	<path class="st0" d="M368.8,108.4c0,10.2-7.3,17.5-18,17.5c-1.3,0-2.7-0.3-3.9-0.7l0,6.3c0.1,5.8,1.1,7,6,7v0.5h-22v-0.5
		c4.3,0,4.8-1.2,4.8-7V103c0-4-0.2-6.1-5.4-5l-0.1-0.5l16.8-4l-0.2,6.3c2.7-4.1,6.1-6.5,10.2-6.5C364.2,93.4,368.8,99.4,368.8,108.4
		L368.8,108.4z M346.9,119.1c0,3.1,0.2,6.3,3.9,6.3c4,0,5.8-4.8,5.8-17c0-2.1-0.1-11.9-4.8-11.9c-2,0-3.3,1.8-4.9,4.1L346.9,119.1z"
		/>
	<path class="st0" d="M406.4,102.3c6.4,0.1,19.8,1.6,19.8,11.2c0,7.5-7.3,12-20.6,12h-22.4V125c6,0,6-3.3,6-10.3V94.3
		c0-7.3,0-10.3-6-10.3v-0.5h16.6c10.4,0,23.6,0.1,23.6,9.7c0,7.9-11,8.8-17,9V102.3z M401.6,83.9v18.1h1.9c5.8,0,7.6-2.9,7.6-9.2
		c0-5.7-1.7-8.9-7.9-8.9H401.6z M412.5,113.5c0-6.8-1-10.9-9.1-10.9h-1.9V118c0,5.7,0.2,7,4,7C410.3,125,412.5,121.3,412.5,113.5z"
		/>
	<path class="st0" d="M453.9,93.4c4.1,0,7.9,2.6,7.9,7.5c0,3.9-2.8,7-6.7,7c-2.7,0-5.2-1.6-5.3-5c1.8-0.6,3-2.1,3-4
		c0-1.9-0.8-3.2-2.6-3.2c-2.9,0-5.1,3.9-6.2,8V118c0,5.8,0.5,7,5.4,7v0.5h-21.4V125c4.3,0,4.8-1.2,4.8-7v-15c0-4-0.2-6.1-5.4-5
		l-0.1-0.5l16.8-4l-0.2,8.8C445.2,97.7,448.1,93.4,453.9,93.4L453.9,93.4z"/>
	<path class="st0" d="M500,121.3c-2.8,2.3-6.1,4.5-10.4,4.5c-3.5,0-5.8-1.5-6.2-6.8c-1.6,4.4-6.4,6.9-11.2,6.9
		c-5.6,0-9.2-2.8-9.2-7.9c0-9.5,13.5-7.9,20.3-12.5v-3.6c0-3.8-0.7-8-4.8-8c-3.1,0-4.6,1.9-4.6,4.8c0,1.4,0.8,3.2,2.1,3.7
		c-0.2,3.4-2.6,5-5.3,5c-3.2,0-5.7-1.9-5.7-5.3c0-7.2,9.6-8.7,13.5-8.7c8.4,0,16,2.3,16,9.3v14.5c0,2,0,4.7,2.8,4.7
		c0.8,0,1.5-0.2,2.6-1L500,121.3z M483.2,117.1v-11c-4.3,2.7-8,2.9-8,9.5c0,2.9,1,5.9,4.1,5.9C481.8,121.5,483.2,119.3,483.2,117.1z
		"/>
	<path class="st0" d="M535.5,118c0,5.8,0.5,7,4.8,7v0.5h-19.3V125c3.3,0,3.4-1.6,3.4-7v-14.5c0-1.6,0-5.3-3.6-5.3
		c-1.7,0-3.7,0.8-5.5,2.4V118c0,4.3,0.1,7,3.4,7v0.5h-19.4V125c4.3,0,4.8-1.2,4.8-7v-15c0-4-0.2-6.1-5.4-5l-0.1-0.5l16.8-4l-0.2,6.4
		c6-4.9,9.6-6.6,13.3-6.6c4.9,0,7,2.8,7,8.9L535.5,118z"/>
	<path class="st0" d="M579.4,121.3c-2.8,2.3-6.1,4.5-10.4,4.5c-3.5,0-5.7-2.8-6.1-6.5c-2.7,4.2-6.1,6.6-10.3,6.6
		c-7.1,0-11.8-6-11.8-15c0-10.2,7.3-17.5,18-17.5c1.3,0,2.7,0.3,3.9,0.7l-0.2-6.6c-0.1-4-0.2-6.1-5.4-5l-0.1-0.5l16.8-4v39.2
		c0,2,0,4.7,2.8,4.7c0.8,0,1.5-0.2,2.6-1L579.4,121.3z M557.8,122.9c2,0,3.3-1.8,4.9-4.1v-18.6c0-3.1-0.2-6.3-3.9-6.3
		c-4,0-5.8,4.8-5.8,17C553,113,553,122.9,557.8,122.9L557.8,122.9z"/>
	<path class="st0" d="M584.9,124.7l-4.3,1.1L580,113h0.4c1.4,10.1,9.3,12.5,13.6,12.5c3.8,0,7.7-1.1,7.7-4.3
		c0-6.5-21.8-5.8-21.8-17.6c0-7.4,8-10.1,15.4-10.1c2.4,0,5.3,0.5,7.5,1.1l3.7-1l0.6,10.6h-0.4c-1.4-7.5-6.7-10.3-11.3-10.3
		c-4.3,0-6.6,2-6.6,4.3c0,6.8,21.4,5,21.4,16.9c0,7.7-7.6,10.9-16.1,10.9C591.7,125.9,588.6,125.5,584.9,124.7z"/>
</g>
</svg>
