<svg xmlns="http://www.w3.org/2000/svg" viewBox="0 0 361.92 38.88" aria-labelledby="howTitle" role="img">
<title id="howTitle">How We Work</title><defs><style>.how-1{fill:#591a5f;}</style></defs><g id="Layer_2" data-name="Layer 2"><g id="Layer_3" data-name="Layer 3"><path class="how-1" d="M40.32,4.71c-4.8,0-4.8,2.44-4.8,8.25V29.28c0,5.62,0,8.26,4.8,8.26v.38H21.94v-.38c3.26,0,3.69-2.64,3.69-8.26V21.07H14.69v8.21c0,5.62.43,8.26,3.7,8.26v.38H0v-.38c4.8,0,4.8-2.64,4.8-8.26V13c0-5.81,0-8.25-4.8-8.25V4.32H18.39v.39c-3.27,0-3.7,2.64-3.7,8.25v7.63H25.63V13c0-5.61-.43-8.25-3.69-8.25V4.32H40.32Z"/><path class="how-1" d="M40.7,25.3c0-7.68,6.15-13,14-13s14,5.33,14,13-6.15,13-14,13S40.7,33,40.7,25.3ZM59,25.3c0-6.72-.48-12.63-4.23-12.63S50.5,18.58,50.5,25.3c0,7.2.48,12.62,4.22,12.62S59,32.5,59,25.3Z"/><path class="how-1" d="M106,12.67h10.46v.39c-3.36,0-4.85,2.54-7.53,8l-8.79,17.85L91.44,21.22,82.75,38.88,72.48,18.39c-1.87-3.7-3.12-5.33-5.86-5.33v-.39H83.71v.39c-3.5,0-2.35,3.07-.91,6l4.56,9.34,3.82-7.76-1.13-2.3c-1.82-3.7-2.4-5.33-4.75-5.33v-.39h16.46v.39c-3.31,0-2.78,3.07-1.39,6l4.37,9.33L108.39,21c2.11-4.28,2.73-8-2.4-8Z"/><path class="how-1" d="M173.57,4.32h13.54v.39c-3.51,0-6.1,2.92-10.37,11.66l-11,22.51-9.44-21.26L145.87,38.88,134.59,13.49c-2.83-6.38-4.46-8.78-7.92-8.78V4.32h18.77v.39c-3.74,0-2.73,3.55-.48,8.68l6.1,13.9,5.05-10.21-1.6-3.59c-3.36-7.58-4-8.78-7-8.78V4.32h18.68v.39c-4.56,0-3.55,3.55-1.3,8.68L171,27.27l5.28-10.95c3.65-7.53,2.64-11.61-2.69-11.61Z"/><path class="how-1" d="M206.55,29c-2.11,5.13-6.48,9.36-13.16,9.36s-12.33-4.75-12.33-12.58,5.56-13.44,14-13.44c8.21,0,12.58,4.18,11,10.27h-16c.21,6.81,3.82,9.8,8.44,9.8,2.4,0,5.95-.92,7.68-3.56ZM195.07,12.67c-4.12,0-4.94,5.81-4.94,9.27v.14h7.47c.77-3,1.19-9.41-2.53-9.41Z"/><path class="how-1" d="M264.44,4.32H278v.39c-3.5,0-6.1,2.92-10.37,11.66L256.66,38.88l-9.45-21.26L236.74,38.88,225.46,13.49c-2.84-6.38-4.47-8.78-7.93-8.78V4.32H236.3v.39c-3.74,0-2.73,3.55-.48,8.68l6.11,13.9,5-10.21-1.59-3.59c-3.36-7.58-4-8.78-7-8.78V4.32H257v.39c-4.56,0-3.55,3.55-1.29,8.68l6.09,13.88,5.28-10.95c3.65-7.53,2.64-11.61-2.69-11.61Z"/><path class="how-1" d="M271.92,25.3c0-7.68,6.14-13,14-13s14,5.33,14,13-6.14,13-14,13S271.92,33,271.92,25.3Zm18.24,0c0-6.72-.48-12.63-4.22-12.63s-4.23,5.91-4.23,12.63c0,7.2.48,12.62,4.23,12.62S290.16,32.5,290.16,25.3Z"/><path class="how-1" d="M328.85,18.29a5.32,5.32,0,0,1-5.33,5.57,4,4,0,0,1-4.27-4,3.33,3.33,0,0,0,2.4-3.17c0-1.54-.67-2.59-2.12-2.59-2.31,0-4,3.13-5,6.37V32c0,4.61.44,5.57,4.32,5.57v.38H301.77v-.38c3.41,0,3.84-1,3.84-5.57V20c0-3.22-.19-4.9-4.32-4l-.09-.39,13.44-3.21-.19,7.07c1.17-3.73,3.53-7.17,8.11-7.17C325.82,12.29,328.85,14.35,328.85,18.29Z"/><path class="how-1" d="M357.17,31.35c1.53,4.89,2.59,6.29,4.75,6v.38a26.09,26.09,0,0,1-6.38.67c-5.81,0-7-2.49-8.21-6.76-1.11-3.84-1.35-7.88-4.13-7.88a3.93,3.93,0,0,0-1.68.44V32c0,3.46.05,5.57,3.22,5.57v.38h-16v-.38c3.41,0,3.84-1,3.84-5.57V7.58c0-3.21-.19-4.89-4.32-4l-.1-.38L341.61,0l-.18,23.54,4.31-4.19c1.54-1.54,3.12-3,3.12-4.56,0-1.06-.67-1.73-2.44-1.73v-.39h12v.39c-4.75,0-8.64,3-12.09,6.29l-4.48,4.3a13.87,13.87,0,0,1,6.3-1.76c5.67,0,7.68,5.38,9,9.46Z"/></g></g></svg>