<svg xmlns="http://www.w3.org/2000/svg" viewBox="0 0 156.25 156.25" aria-labelledby="reportIcon" role="img"><title id="reportIcon">An illustration of a laptop with a soaring chart on the screen</title>
<defs><style>.rep-1{fill:#ca6b75;}.rep-2{fill:none;stroke:#fff;stroke-linecap:round;stroke-linejoin:round;stroke-width:4px;}.rep-3{fill:#fff;}</style></defs><g id="Layer_2" data-name="Layer 2"><g id="Layer_4" data-name="Layer 4"><circle class="rep-1" cx="78.13" cy="78.13" r="78.13"/><path class="rep-2" d="M125.89,98.9a4.89,4.89,0,0,1-4.9,5H34.88a4.9,4.9,0,0,1-4.9-5l1-47.09a5.14,5.14,0,0,1,5.1-5h83.79a5.14,5.14,0,0,1,5.1,5Z"/><rect class="rep-1" x="22.68" y="100.96" width="110.89" height="8.48" rx="2"/><rect class="rep-2" x="22.68" y="100.96" width="110.89" height="8.48" rx="2"/><polyline class="rep-2" points="44.83 89.72 62.33 75.62 69.48 83.12 88.48 65.7 93.32 75.36 110.41 60.09"/><polygon class="rep-3" points="108.99 70.46 109.53 60.88 99.95 60.34 104.25 56.51 113.82 57.05 113.28 66.63 108.99 70.46"/></g></g></svg>