<svg xmlns="http://www.w3.org/2000/svg" viewBox="0 0 330.84 76.83">
  <defs>
    <style>
      .logo-1{fill:#591a5f}
    </style>
  </defs>
  <g id="Layer_2" data-name="Layer 2">
    <g id="Layer_3" data-name="Layer 3">
      <path class="logo-1" d="M87.42 65.31c-4 7.06-11.17 11.52-20.6 11.52-31.68 0-28-45.22-43.27-45.22H22v12.31c0 8.43.72 12.39 7.49 12.39v.57H0v-.57c7.2 0 7.2-4 7.2-12.39V19.44c0-8.71 0-12.38-7.2-12.38v-.58h26c7.42 0 24.2.29 24.2 12.39 0 9.86-13.54 12.16-22.11 12.52v.15c13.11-.79 18.65 4.1 23.91 14.18 5.47 10.52 11.59 22.54 25.56 22.54 3.17 0 7.35-.57 9.51-3.17ZM22 31h2c7.2 0 10.3-3.67 10.3-12.16 0-6.7-2.38-11.81-10.16-11.81H22Z"/>
      <path class="logo-1" d="M95.33 43.42c-3.17 7.7-9.72 14-19.73 14S57.1 50.33 57.1 38.6s8.35-20.17 21-20.17c12.32 0 18.87 6.27 16.57 15.41h-24c.33 10.21 5.79 14.69 12.71 14.69 3.6 0 8.93-1.37 11.52-5.33ZM78.12 19c-6.19 0-7.41 8.71-7.41 13.9v.21h11.2C83.07 28.65 83.7 19 78.12 19ZM105.7 56l-5.12 1.3-.79-15.41h.5c1.73 12.17 11.17 15 16.35 15 4.61 0 9.29-1.29 9.29-5.11 0-7.85-26.14-7-26.14-21.17 0-8.85 9.58-12.17 18.43-12.17a33.78 33.78 0 0 1 9 1.37l4.39-1.22.72 12.74h-.51c-1.72-9-8.06-12.31-13.61-12.31-5.11 0-7.92 2.38-7.92 5.11 0 8.21 25.64 6.05 25.64 20.24 0 9.21-9.07 13.1-19.3 13.1A56 56 0 0 1 105.7 56ZM138 56.88v-.57c5.11 0 5.76-1.44 5.76-8.35V30c0-4.82-.29-7.34-6.48-6l-.14-.58 20.16-4.82-.15 8.28V48c0 6.91.65 8.35 5.76 8.35v.57Zm4.54-49A7.93 7.93 0 0 1 150.41 0a7.84 7.84 0 0 1 7.92 7.85 7.92 7.92 0 1 1-15.84 0ZM212 51.92c-3.31 2.81-7.35 5.4-12.53 5.4-4.2 0-6.9-3.4-7.31-7.81-3.23 5.07-7.37 8-12.42 8-8.57 0-14.11-7.2-14.11-18 0-12.24 8.78-21 21.6-21a14.65 14.65 0 0 1 4.66.84l-.2-7.89c-.14-4.83-.28-7.35-6.48-6l-.21-.64L205.2 0v47c0 2.38 0 5.69 3.31 5.69a5.35 5.35 0 0 0 3.17-1.23Zm-25.92 1.87c2.42 0 4-2.14 5.83-4.86V26.57c0-3.67-.29-7.56-4.68-7.56-4.83 0-6.91 5.76-6.91 20.45 0 2.52.07 14.33 5.76 14.33ZM251.64 43.42c-3.17 7.7-9.72 14-19.73 14s-18.5-7.13-18.5-18.86 8.35-20.17 21-20.17c12.32 0 18.87 6.27 16.56 15.41H227c.31 10.21 5.74 14.69 12.66 14.69 3.6 0 8.93-1.37 11.52-5.33ZM234.43 19c-6.19 0-7.41 8.71-7.41 13.9v.21h11.2C239.38 28.65 240 19 234.43 19ZM297.22 48c0 6.91.65 8.35 5.76 8.35v.57h-23.19v-.57c4 0 4-2 4-8.35V30.6c0-1.94 0-6.41-4.32-6.41A10.39 10.39 0 0 0 273 27v21c0 5.18.07 8.35 4.11 8.35v.57H253.8v-.57c5.11 0 5.76-1.44 5.76-8.35V30c0-4.82-.29-7.34-6.48-6l-.15-.58 20.17-4.82-.27 7.73c7.2-5.83 11.55-7.88 16-7.88 5.83 0 8.43 3.39 8.43 10.73ZM308.3 48V19.59h-5V19h1.08c5.9 0 10.51-1.08 13.18-3.31 1.87-2.45 3.24-7.49 3.53-11h.57V19h7.92v.58h-7.92v25.93c0 2.81.07 7.13 3.67 7.13 1.95 0 3.6-1.08 5.26-2.6l.29.44c-3.75 4.1-8.57 7-14 7-5.77-.02-8.58-3.91-8.58-9.48Z"/>
    </g>
  </g>
</svg>