<svg xmlns="http://www.w3.org/2000/svg" xmlns:xlink="http://www.w3.org/1999/xlink" viewBox="0 0 156.25 156.25" aria-labelledby="segIcon" role="img"><title id="segIcon">An illustration of a piechart with a customer in the middle</title><defs><style>.seg-1,.seg-3{fill:none;}.seg-2,.seg-6{fill:#ca6b75;}.seg-3,.seg-6{stroke:#fff;stroke-width:4px;}.seg-3{stroke-linejoin:round;}.seg-4{fill:#fff;}.seg-5{clip-path:url(#clip-path);}.seg-6{stroke-miterlimit:10;}</style><clipPath id="clip-path"><path class="seg-1" d="M84.62,24.84A49.63,49.63,0,1,0,90,121L75.25,73.59Z"/></clipPath></defs><g id="Layer_2" data-name="Layer 2"><g id="Layer_4" data-name="Layer 4"><circle class="seg-2" cx="78.13" cy="78.13" r="78.13"/><path class="seg-3" d="M129,63.35a49.66,49.66,0,0,1-30,68.94L84.26,84.89Z"/><path class="seg-3" d="M81.63,76,91,27.26a49.71,49.71,0,0,1,35.35,27.19Z"/><path class="seg-3" d="M81.36,29a49.63,49.63,0,1,0,5.39,96.15L72,77.71Z"/><path class="seg-4" d="M91,27.27l-.67,3.48H102A49.75,49.75,0,0,0,91,27.27Z"/><path class="seg-4" d="M111,36.05H89.31l-.72,3.75h26.93A47.69,47.69,0,0,0,111,36.05Z"/><path class="seg-4" d="M120.43,45.1H87.57l-.72,3.75h36.29Q121.87,46.9,120.43,45.1Z"/><path class="seg-4" d="M126.17,54.14H85.83l-.72,3.75h34.13l7.1-3.42C126.29,54.36,126.23,54.25,126.17,54.14Z"/><polygon class="seg-4" points="83.37 66.94 100.46 66.94 108.24 63.19 84.09 63.19 83.37 66.94"/><polygon class="seg-4" points="81.63 75.99 81.69 75.99 89.47 72.24 82.35 72.24 81.63 75.99"/><g class="seg-5"><path class="seg-6" d="M66.09,130V106.35a9,9,0,0,0-9-9H49.8a9,9,0,0,0-9,9V130Z"/><circle class="seg-6" cx="53.43" cy="86.11" r="8.33"/></g></g></g></svg>