<svg xmlns="http://www.w3.org/2000/svg" viewBox="0 0 278.59 38.88" aria-labelledby="vHeader" role="img">
<title id="vHeader">Our Values</title>
<defs><style>.val-1{fill:#591a5f;}</style></defs><g id="Layer_2" data-name="Layer 2"><g id="Layer_2-2" data-name="Layer 2"><path class="val-1" d="M0,21.12C0,10.18,8.21,3.94,18.29,3.94s18.29,6.24,18.29,17.18S28.37,38.31,18.29,38.31,0,32.07,0,21.12Zm25.63,0c0-7.2-.48-16.8-7.34-16.8S11,13.92,11,21.12s.48,16.8,7.34,16.8S25.63,28.32,25.63,21.12Z"/><path class="val-1" d="M71.86,34.61c-2.21,1.87-4.9,3.6-8.35,3.6s-5-1.71-5-5.6c-4.11,4.34-7.7,5.7-10.64,5.7-3.89,0-5.62-2.26-5.62-7.16V18.82c0-2.84-.14-4.37-4.32-3.6l-.1-.39,13.35-2.45V30.19c0,1.3,0,4.28,2.88,4.28a5.93,5.93,0,0,0,4.37-2.34V18.82c0-2.83-.15-4.37-3.36-3.79l-.1-.39,12.39-2.25v19c0,1.58,0,3.79,2.2,3.79a3.57,3.57,0,0,0,2.12-.82Z"/><path class="val-1" d="M92.54,12.29c3.27,0,6.29,2.06,6.29,6a5.32,5.32,0,0,1-5.33,5.57,4,4,0,0,1-4.27-4,3.33,3.33,0,0,0,2.4-3.17c0-1.54-.67-2.59-2.11-2.59-2.32,0-4,3.13-5,6.37V32c0,4.61.43,5.57,4.32,5.57v.38H71.76v-.38c3.41,0,3.84-1,3.84-5.57V20c0-3.22-.19-4.9-4.32-4l-.1-.39,13.44-3.21-.18,7.07c1.17-3.73,3.52-7.17,8.11-7.17Z"/><path class="val-1" d="M137.67,4.32H151.2v.39c-3.5,0-5.52,2.16-10.22,11.66L129.89,38.88,117.65,13.49c-3-6.29-4.47-8.78-7.92-8.78V4.32h19.58v.39c-4.56,0-3.65,3.64-1.29,8.68l6.77,14.49,5.71-11.56c3.69-7.53,2.49-11.61-2.83-11.61Z"/><path class="val-1" d="M175.3,34.61c-2.21,1.87-4.9,3.6-8.36,3.6-2.8,0-4.61-1.23-5-5.42-1.32,3.48-5.09,5.52-9,5.52-4.51,0-7.39-2.21-7.39-6.34,0-7.59,10.77-6.3,16.23-10v-2.9c0-3-.53-6.39-3.84-6.39-2.5,0-3.7,1.49-3.7,3.84a3.44,3.44,0,0,0,1.68,3,4,4,0,0,1-4.23,4c-2.59,0-4.56-1.53-4.56-4.27,0-5.76,7.69-7,10.81-7,6.72,0,12.76,1.87,12.76,7.44V31.35c0,1.58,0,3.79,2.21,3.79a3.52,3.52,0,0,0,2.11-.82Zm-16.57.19a3.27,3.27,0,0,0,3.12-3.55V22.43c-3.41,2.2-6.43,2.29-6.43,7.62,0,2.3.82,4.75,3.31,4.75Z"/><path class="val-1" d="M174.24,37.92v-.38c3.41,0,3.84-1,3.84-5.57V7.58c0-3.21-.19-4.89-4.32-4l-.1-.38L187,0V32c0,4.61.43,5.57,3.84,5.57v.38Z"/><path class="val-1" d="M225.07,34.61c-2.21,1.87-4.89,3.6-8.35,3.6s-5-1.71-5-5.6c-4.12,4.34-7.71,5.7-10.65,5.7-3.89,0-5.62-2.26-5.62-7.16V18.82c0-2.84-.14-4.37-4.32-3.6l-.09-.39,13.34-2.45V30.19c0,1.3,0,4.28,2.88,4.28a5.91,5.91,0,0,0,4.37-2.34V18.82c0-2.83-.14-4.37-3.36-3.79l-.09-.39,12.38-2.25v19c0,1.58,0,3.79,2.21,3.79a3.54,3.54,0,0,0,2.11-.82Z"/><path class="val-1" d="M251.52,29c-2.11,5.13-6.48,9.36-13.15,9.36S226,33.56,226,25.73s5.57-13.44,14-13.44c8.21,0,12.57,4.18,11,10.27h-16c.21,6.81,3.83,9.8,8.44,9.8,2.4,0,5.95-.92,7.68-3.56ZM240.05,12.67c-4.13,0-5,5.81-5,9.27v.14h7.47c.77-3,1.19-9.41-2.52-9.41Z"/><path class="val-1" d="M258.43,37.35l-3.41.86-.53-10.27h.34c1.15,8.11,7.44,10,10.9,10,3.07,0,6.19-.86,6.19-3.4,0-5.24-17.43-4.66-17.43-14.12,0-5.9,6.39-8.11,12.29-8.11a22.32,22.32,0,0,1,6,.91l2.93-.81.48,8.49h-.34c-1.15-6-5.37-8.21-9.07-8.21-3.41,0-5.28,1.59-5.28,3.41,0,5.47,17.09,4,17.09,13.49,0,6.15-6,8.74-12.86,8.74A37.89,37.89,0,0,1,258.43,37.35Z"/></g></g></svg>