<svg xmlns="http://www.w3.org/2000/svg" viewBox="0 0 310.85 38.88" aria-labelledby="whatHeader" role="img"><title id="whatHeader">What We Do</title>
<defs><style>.what{fill:#591a5f;}</style></defs><g id="Layer_2" data-name="Layer 2"><g id="Layer_3" data-name="Layer 3"><path class="what" d="M46.9,4.32H60.44v.39c-3.51,0-6.1,2.92-10.37,11.66l-11,22.51L29.68,17.62,19.2,38.88,7.92,13.49C5.09,7.11,3.46,4.71,0,4.71V4.32H18.77v.39c-3.74,0-2.74,3.55-.48,8.68l6.1,13.9,5.05-10.21-1.6-3.59c-3.36-7.58-4-8.78-7-8.78V4.32H39.51v.39c-4.56,0-3.56,3.55-1.3,8.68l6.1,13.88,5.28-10.95C53.24,8.79,52.23,4.71,46.9,4.71Z"/><path class="what" d="M90,32c0,4.61.44,5.57,3.84,5.57v.38H78.34v-.38C81,37.54,81,36.24,81,32V20.4c0-1.29,0-4.27-2.88-4.27A6.88,6.88,0,0,0,73.78,18V32c0,3.46,0,5.57,2.73,5.57v.38H61v-.38c3.41,0,3.84-1,3.84-5.57V7.58c0-3.21-.19-4.89-4.32-4l-.1-.38L73.87,0l-.19,17.55c4.81-3.9,7.71-5.26,10.66-5.26,3.89,0,5.61,2.26,5.61,7.15Z"/><path class="what" d="M124.8,34.61c-2.21,1.87-4.9,3.6-8.35,3.6-2.81,0-4.61-1.23-5-5.42-1.32,3.48-5.09,5.52-9,5.52-4.51,0-7.4-2.21-7.4-6.34,0-7.59,10.77-6.3,16.23-10v-2.9c0-3-.53-6.39-3.84-6.39-2.5,0-3.7,1.49-3.7,3.84a3.46,3.46,0,0,0,1.68,3,4,4,0,0,1-4.22,4c-2.59,0-4.56-1.53-4.56-4.27,0-5.76,7.68-7,10.8-7,6.72,0,12.77,1.87,12.77,7.44V31.35c0,1.58,0,3.79,2.21,3.79a3.54,3.54,0,0,0,2.11-.82Zm-16.56.19a3.28,3.28,0,0,0,3.12-3.55V22.43c-3.42,2.2-6.43,2.29-6.43,7.62,0,2.31.81,4.75,3.31,4.75Z"/><path class="what" d="M127.49,32V13.06h-3.36v-.39h.72c3.93,0,7-.72,8.78-2.2,1.25-1.64,2.16-5,2.35-7.35h.39v9.55h5.28v.39h-5.28V30.34c0,1.87,0,4.75,2.45,4.75a5.31,5.31,0,0,0,3.5-1.73l.19.29c-2.49,2.74-5.71,4.66-9.36,4.66S127.49,35.72,127.49,32Z"/><path class="what" d="M198.87,4.32H212.4v.39c-3.5,0-6.09,2.92-10.36,11.66L191.09,38.88l-9.45-21.26L171.17,38.88,159.89,13.49c-2.83-6.38-4.47-8.78-7.92-8.78V4.32h18.77v.39c-3.75,0-2.74,3.55-.48,8.68l6.1,13.9,5-10.21-1.59-3.59c-3.36-7.58-4-8.78-7-8.78V4.32h18.67v.39c-4.56,0-3.55,3.55-1.29,8.68l6.09,13.88,5.28-10.95c3.65-7.53,2.64-11.61-2.68-11.61Z"/><path class="what" d="M231.84,29c-2.11,5.13-6.48,9.36-13.15,9.36s-12.34-4.75-12.34-12.58,5.57-13.44,14-13.44c8.21,0,12.58,4.18,11,10.27h-16c.21,6.81,3.83,9.8,8.44,9.8,2.4,0,5.95-.92,7.68-3.56ZM220.37,12.67c-4.13,0-5,5.81-5,9.27v.14h7.48c.77-3,1.18-9.41-2.53-9.41Z"/><path class="what" d="M243,37.92v-.38c4.8,0,4.8-2.64,4.8-8.26V13c0-5.81,0-8.25-4.8-8.25V4.32h17.62c11.81,0,19.3,5.47,19.3,16.8,0,9.6-6.05,16.8-18.73,16.8Zm26-16.8c0-11.09-1.1-16.41-9.89-16.41h-1.39V32c0,4.56.14,5.57,3.5,5.57C266,37.54,269,33.36,269,21.12Z"/><path class="what" d="M282.81,25.3c0-7.68,6.15-13,14-13s14,5.33,14,13-6.15,13-14,13S282.81,33,282.81,25.3Zm18.24,0c0-6.72-.48-12.63-4.22-12.63s-4.22,5.91-4.22,12.63c0,7.2.48,12.62,4.22,12.62S301.05,32.5,301.05,25.3Z"/></g></g></svg>