<svg xmlns="http://www.w3.org/2000/svg" viewBox="0 0 320.5 38.88"><defs><style>.who{fill:#591a5f;}</style></defs><g id="Layer_2" data-name="Layer 2"><g id="Layer_3" data-name="Layer 3"><path class="who" d="M46.9,4.32H60.44v.39c-3.51,0-6.1,2.92-10.37,11.66l-11,22.51L29.68,17.62,19.2,38.88,7.92,13.49C5.09,7.11,3.46,4.71,0,4.71V4.32H18.77v.39c-3.74,0-2.74,3.55-.48,8.68l6.1,13.9,5.05-10.21-1.6-3.59c-3.36-7.58-4-8.78-7-8.78V4.32H39.51v.39c-4.56,0-3.56,3.55-1.3,8.68l6.1,13.88,5.28-10.95C53.24,8.79,52.23,4.71,46.9,4.71Z"/><path class="who" d="M90,32c0,4.61.44,5.57,3.84,5.57v.38H78.34v-.38C81,37.54,81,36.24,81,32V20.4c0-1.29,0-4.27-2.88-4.27A6.88,6.88,0,0,0,73.78,18V32c0,3.46,0,5.57,2.73,5.57v.38H61v-.38c3.41,0,3.84-1,3.84-5.57V7.58c0-3.21-.19-4.89-4.32-4l-.1-.38L73.87,0l-.19,17.54c4.81-3.89,7.71-5.25,10.66-5.25,3.89,0,5.61,2.26,5.61,7.15Z"/><path class="who" d="M94.17,25.3c0-7.68,6.15-13,14-13s14,5.33,14,13-6.15,13-14,13S94.17,33,94.17,25.3Zm18.25,0c0-6.72-.48-12.63-4.23-12.63S104,18.58,104,25.3c0,7.2.48,12.62,4.22,12.62S112.42,32.5,112.42,25.3Z"/><path class="who" d="M180.48,4.32H194v.39c-3.5,0-6.1,2.92-10.37,11.66L172.71,38.88l-9.45-21.26L152.78,38.88,141.5,13.49c-2.83-6.38-4.46-8.78-7.92-8.78V4.32h18.77v.39c-3.74,0-2.73,3.55-.48,8.68l6.1,13.9L163,17.08l-1.6-3.59c-3.36-7.58-4-8.78-7-8.78V4.32h18.67v.39c-4.56,0-3.55,3.55-1.3,8.68l6.1,13.88,5.28-10.95c3.65-7.53,2.64-11.61-2.69-11.61Z"/><path class="who" d="M213.46,29c-2.11,5.13-6.48,9.36-13.16,9.36S188,33.56,188,25.73s5.57-13.44,14-13.44c8.21,0,12.58,4.18,11,10.27h-16c.21,6.81,3.82,9.8,8.44,9.8,2.4,0,5.95-.92,7.68-3.56ZM202,12.67c-4.13,0-5,5.81-5,9.27v.14h7.47c.77-3,1.19-9.41-2.53-9.41Z"/><path class="who" d="M258,28.76c3,6.28,4.47,8.78,7.92,8.78v.38H246.34v-.38c4.56,0,3.64-3.65,1.29-8.69l-1.21-2.59H235c-3.5,7.32-2.26,11.28,3,11.28v.38H224.45v-.38c3.5,0,6.48-4.08,10.22-11.66L245.76,3.36Zm-22.78-3h11l-5.34-11.41Z"/><path class="who" d="M287.28,12.29c3.26,0,6.29,2.06,6.29,6a5.32,5.32,0,0,1-5.33,5.57,4,4,0,0,1-4.27-4,3.33,3.33,0,0,0,2.4-3.17c0-1.54-.68-2.59-2.12-2.59-2.31,0-4.05,3.13-5,6.37V32c0,4.61.43,5.57,4.32,5.57v.38H266.49v-.38c3.41,0,3.84-1,3.84-5.57V20c0-3.22-.19-4.9-4.32-4l-.09-.39,13.44-3.21-.19,7.07c1.17-3.73,3.52-7.17,8.11-7.17Z"/><path class="who" d="M320.5,29c-2.12,5.13-6.48,9.36-13.16,9.36S295,33.56,295,25.73s5.56-13.44,14-13.44c8.21,0,12.58,4.18,11,10.27h-16c.21,6.81,3.82,9.8,8.44,9.8,2.4,0,6-.92,7.68-3.56ZM309,12.67c-4.12,0-4.94,5.81-4.94,9.27v.14h7.47c.77-3,1.19-9.41-2.53-9.41Z"/></g></g></svg>