<svg xmlns="http://www.w3.org/2000/svg" viewBox="0 0 354.72 38.88" aria-labelledby="workHeader" role="img"><title id="workHeader">Work With Us</title>
<defs><style>.work-1{fill:#f2b5a7;}</style></defs><g id="Layer_2" data-name="Layer 2"><g id="Layer_3" data-name="Layer 3"><path class="work-1" d="M46.9,4.32H60.44v.39c-3.51,0-6.1,2.92-10.37,11.66l-11,22.51L29.68,17.62,19.2,38.88,7.92,13.49C5.09,7.11,3.46,4.71,0,4.71V4.32H18.77v.39c-3.74,0-2.74,3.55-.48,8.68l6.1,13.9,5.05-10.21-1.6-3.59c-3.36-7.58-4-8.78-7-8.78V4.32H39.51v.39c-4.56,0-3.56,3.55-1.3,8.68l6.1,13.88,5.28-10.95C53.24,8.79,52.23,4.71,46.9,4.71Z"/><path class="work-1" d="M54.38,25.3c0-7.68,6.15-13,14-13s14,5.33,14,13-6.15,13-14,13S54.38,33,54.38,25.3Zm18.25,0c0-6.72-.48-12.63-4.23-12.63s-4.22,5.91-4.22,12.63c0,7.2.48,12.62,4.22,12.62S72.63,32.5,72.63,25.3Z"/><path class="work-1" d="M105,12.29c3.27,0,6.29,2.06,6.29,6A5.32,5.32,0,0,1,106,23.86a4,4,0,0,1-4.27-4,3.33,3.33,0,0,0,2.4-3.17c0-1.54-.67-2.59-2.11-2.59-2.32,0-4,3.13-5,6.37V32c0,4.61.43,5.57,4.32,5.57v.38H84.24v-.38c3.41,0,3.84-1,3.84-5.57V20c0-3.22-.19-4.9-4.32-4l-.1-.39L97.1,12.39l-.18,7.07c1.17-3.73,3.52-7.17,8.1-7.17Z"/><path class="work-1" d="M139.63,31.35c1.54,4.89,2.6,6.29,4.76,6v.38a26.12,26.12,0,0,1-6.39.67c-5.81,0-7-2.49-8.21-6.76-1.1-3.85-1.34-7.88-4.13-7.88a3.93,3.93,0,0,0-1.68.44V32c0,3.46,0,5.57,3.22,5.57v.38h-16v-.38c3.4,0,3.84-1,3.84-5.57V7.58c0-3.21-.2-4.89-4.32-4l-.1-.38L124.08,0l-.19,23.54,4.32-4.19c1.54-1.54,3.12-3,3.12-4.56,0-1.06-.67-1.73-2.45-1.73v-.39h12.05v.39c-4.75,0-8.64,3-12.1,6.29l-4.47,4.3a13.84,13.84,0,0,1,6.3-1.76c5.66,0,7.68,5.38,9,9.46Z"/><path class="work-1" d="M201.6,4.32h13.54v.39c-3.5,0-6.1,2.92-10.37,11.66L193.83,38.88l-9.45-21.26L173.9,38.88,162.62,13.49c-2.83-6.38-4.46-8.78-7.92-8.78V4.32h18.77v.39c-3.74,0-2.73,3.55-.48,8.68l6.1,13.9,5-10.21-1.6-3.59c-3.35-7.58-4-8.78-7-8.78V4.32h18.67v.39c-4.56,0-3.55,3.55-1.3,8.68L199,27.27l5.28-10.95c3.65-7.53,2.64-11.61-2.69-11.61Z"/><path class="work-1" d="M213.79,37.92v-.38c3.41,0,3.84-1,3.84-5.57V20c0-3.22-.19-4.9-4.32-4l-.1-.39,13.45-3.21-.1,5.52V32c0,4.61.43,5.57,3.84,5.57v.38Zm3-32.69A5.29,5.29,0,0,1,222.1,0a5.23,5.23,0,0,1,5.28,5.23,5.29,5.29,0,1,1-10.57,0Z"/><path class="work-1" d="M234,32V13.06h-3.36v-.39h.72c3.94,0,7-.72,8.79-2.21,1.24-1.63,2.16-5,2.35-7.34h.38v9.55h5.28v.39h-5.28V30.34c0,1.87,0,4.75,2.45,4.75a5.29,5.29,0,0,0,3.5-1.73l.2.29c-2.5,2.74-5.72,4.66-9.36,4.66C235.82,38.31,234,35.72,234,32Z"/><path class="work-1" d="M277.83,32c0,4.61.43,5.57,3.84,5.57v.38H266.21v-.38c2.64,0,2.69-1.3,2.69-5.57V20.4c0-1.29,0-4.27-2.88-4.27A6.9,6.9,0,0,0,261.65,18V32c0,3.46.05,5.57,2.73,5.57v.38h-15.5v-.38c3.41,0,3.84-1,3.84-5.57V7.58c0-3.21-.19-4.89-4.32-4l-.1-.38L261.74,0l-.18,17.54c4.8-3.89,7.7-5.25,10.65-5.25,3.89,0,5.62,2.26,5.62,7.15Z"/><path class="work-1" d="M297,25.15V13c0-5.81,0-8.25-4.8-8.25V4.32h19.35v.39c-4.18,0-4.66,2.11-4.66,8.25V25.15c0,5.29.43,12.29,7.4,12.29,5.56,0,10-2.49,10-10.94V19c0-7-.19-14.3-7.39-14.3V4.32h15.26v.39c-7.06,0-7.39,7.29-7.39,14.3V26.5c0,8.21-3.94,11.76-12.53,11.76C302.73,38.26,297,36.1,297,25.15Z"/><path class="work-1" d="M334.56,37.35l-3.41.86-.53-10.27H331c1.15,8.11,7.44,10,10.89,10,3.08,0,6.2-.86,6.2-3.4,0-5.24-17.43-4.66-17.43-14.12,0-5.9,6.39-8.11,12.29-8.11a22.32,22.32,0,0,1,6,.91l2.93-.81.48,8.49H352c-1.15-6-5.37-8.21-9.07-8.21-3.41,0-5.28,1.59-5.28,3.41,0,5.47,17.09,4,17.09,13.49,0,6.15-6.05,8.74-12.87,8.74A37.9,37.9,0,0,1,334.56,37.35Z"/></g></g></svg>