<svg xmlns="http://www.w3.org/2000/svg" xmlns:xlink="http://www.w3.org/1999/xlink" viewBox="0 0 28.37 23.1"><defs><style>.cls-1{fill:#fff;}.cls-1,.cls-3{fill-rule:evenodd;}.cls-2{mask:url(#mask);}.cls-3{fill:#591a5f;}</style><mask id="mask" x="-2" y="-4" width="32" height="32" maskUnits="userSpaceOnUse"><g id="mask0"><path class="cls-1" d="M-2-4H30V28H-2Z"/></g></mask></defs><g id="Layer_2" data-name="Layer 2"><g id="Layer_2-2" data-name="Layer 2"><g class="cls-2"><path class="cls-3" d="M8.92,23.1c10.71,0,16.56-8.89,16.56-16.59,0-.25,0-.51,0-.76a11.9,11.9,0,0,0,2.9-3A11.41,11.41,0,0,1,25,3.65,5.87,5.87,0,0,0,27.59.43a11.83,11.83,0,0,1-3.7,1.41A5.83,5.83,0,0,0,14,7.16,16.49,16.49,0,0,1,2,1.07,5.8,5.8,0,0,0,1.19,4,5.8,5.8,0,0,0,3.78,8.85a5.72,5.72,0,0,1-2.64-.73V8.2a5.85,5.85,0,0,0,4.67,5.72,6,6,0,0,1-1.54.2A5.6,5.6,0,0,1,3.18,14a5.84,5.84,0,0,0,5.44,4.06,11.7,11.7,0,0,1-7.23,2.49A12.81,12.81,0,0,1,0,20.48,16.49,16.49,0,0,0,8.92,23.1Z"/></g></g></g></svg>